<?xml version="1.0" encoding="utf-8"?>
<!-- Generator: Adobe Illustrator 19.2.1, SVG Export Plug-In . SVG Version: 6.00 Build 0)  -->
<svg version="1.1" id="layer" xmlns="http://www.w3.org/2000/svg" xmlns:xlink="http://www.w3.org/1999/xlink" x="0px" y="0px"
	 viewBox="0 0 652 652" style="enable-background:new 0 0 652 652;" xml:space="preserve">
<style type="text/css">
	.st0{fill:#E3000F;}
	.st1{fill:#FFCA00;}
</style>
<g>
	<path d="M133.8,144.7h16.4v9.5h0.3c5.5-8.3,13.5-11,20.1-11c9.5,0,16.2,3.5,20,12c4.1-8.1,12.9-12,21.2-12
		c16.7,0,21.4,11.4,21.4,26.5v42.7h-17.6v-40.3c0-6.3,0-15.3-10.1-15.3c-11.7,0-13.1,13.9-13.1,22.8v32.9h-17.6v-40.3
		c0-6.3,0-15.3-10.1-15.3c-11.7,0-13.2,13.9-13.2,22.8v32.9h-17.6V144.7z"/>
	<path d="M254,148.3c6.8-3.1,16-5.1,23.5-5.1c20.6,0,29.2,8.5,29.2,28.5v8.7c0,6.8,0.1,12,0.3,17c0.1,5.1,0.4,9.9,0.8,15.1h-15.5
		c-0.7-3.6-0.7-8-0.8-10.1h-0.3c-4.1,7.5-12.9,11.7-20.9,11.7c-12,0-23.7-7.2-23.7-20.1c0-10.1,4.9-16.1,11.6-19.3
		c6.7-3.3,15.4-3.9,22.7-3.9h9.7c0-10.9-4.9-14.6-15.3-14.6c-7.5,0-15,2.9-20.9,7.4L254,148.3z M274.6,201.1c5.4,0,9.6-2.4,12.4-6
		c2.9-3.8,3.7-8.7,3.7-13.9H283c-7.9,0-19.6,1.3-19.6,11.7C263.4,198.6,268.3,201.1,274.6,201.1"/>
	<path d="M369.1,204.8h-0.3c-5.3,6.6-12.5,9.2-20.8,9.2c-20.8,0-28.4-17.1-28.4-35.6c0-18.7,7.6-35.2,28.4-35.2c8.8,0,15,3,20.2,9.5
		h0.3v-38.8h17.6v98.6h-17.1V204.8z M352.9,200.3c11.7,0,15.5-12.4,15.5-22c0-9.4-4.5-21.5-15.8-21.5c-11.4,0-14.6,12.5-14.6,21.5
		C338.1,187.7,341.4,200.3,352.9,200.3"/>
	<path d="M458.6,208.6c-6.4,3.5-13.8,5.4-23.3,5.4c-22.3,0-35.4-12.9-35.4-35.1c0-19.6,10.4-35.8,31.4-35.8
		c25.1,0,32.2,17.2,32.2,40.9h-46.8c0.8,10.9,8.4,17.1,19.3,17.1c8.5,0,15.9-3.1,22.5-6.8V208.6z M446.8,172
		c-0.5-8.5-4.5-15.9-14.3-15.9c-9.9,0-14.9,6.8-15.6,15.9H446.8z"/>
	<path d="M132.9,282.9h17.5v16.7h-17.5V282.9z M132.9,311.9h17.5v67.4h-17.5V311.9z"/>
	<path d="M168.9,311.9h16.6v9.2h0.2c5.5-7.7,13-10.7,22.1-10.7c16,0,22.9,11.3,22.9,26.4v42.5h-17.5v-36c0-8.2-0.1-19.4-11.4-19.4
		c-12.7,0-15.4,13.7-15.4,22.4v33h-17.5V311.9z"/>
	<path d="M207.1,468.2c-7.1-3.3-16.2-4.8-23.6-4.8c-21.3,0-33.1,14.4-33.1,33.1c0,18.6,11.5,32.6,31,32.6c5,0,8.9-0.5,12-1.3v-23.8
		h-19.4v-14.4H211v49.2c-9.7,2.6-19.8,4.7-29.6,4.7c-29.6,0-50.1-14.8-50.1-45.7c0-31.3,19.1-48.8,50.1-48.8c10.6,0,19,1.4,26.8,3.8
		L207.1,468.2z"/>
	<path d="M282.7,538c-6.4,3.5-13.7,5.4-23.2,5.4c-22.2,0-35.2-12.8-35.2-34.9c0-19.5,10.3-35.6,31.3-35.6c25,0,32.1,17.1,32.1,40.7
		h-46.6c0.8,10.9,8.4,17,19.2,17c8.5,0,15.8-3.1,22.4-6.8V538z M270.9,501.5c-0.5-8.5-4.4-15.8-14.3-15.8c-9.8,0-14.8,6.8-15.6,15.8
		H270.9z"/>
	<path d="M301.8,474.5h15.6v15.3h0.3c0.8-6.3,8-16.9,18.5-16.9c1.7,0,3.5,0,5.4,0.5v17.7c-1.6-0.9-4.7-1.4-7.8-1.4
		c-14.3,0-14.3,17.8-14.3,27.5v24.7h-17.5V474.5z"/>
	<path d="M352,474.5h16.4v9.4h0.2c5.5-8.2,13.5-11,20-11c9.4,0,16.1,3.5,19.9,11.9c4.1-8.1,12.8-11.9,21.1-11.9
		c16.6,0,21.3,11.4,21.3,26.4v42.5h-17.5v-40.2c0-6.3,0-15.2-10.1-15.2c-11.6,0-13.1,13.9-13.1,22.6v32.7h-17.5v-40.2
		c0-6.3,0-15.2-10.1-15.2c-11.6,0-13.1,13.9-13.1,22.6v32.7H352V474.5z"/>
	<path d="M471.6,478c6.8-3.1,16-5.1,23.4-5.1c20.5,0,29,8.5,29,28.4v8.6c0,6.8,0.1,11.9,0.3,16.9c0.1,5.1,0.4,9.8,0.8,15.1h-15.4
		c-0.7-3.5-0.7-8-0.8-10.1h-0.3c-4.1,7.5-12.8,11.6-20.8,11.6c-11.9,0-23.6-7.2-23.6-20c0-10.1,4.8-16,11.5-19.2
		c6.7-3.3,15.3-3.9,22.6-3.9h9.7c0-10.9-4.8-14.5-15.2-14.5c-7.5,0-14.9,2.9-20.8,7.3L471.6,478z M492.1,530.6c5.4,0,9.6-2.4,12.3-6
		c2.9-3.8,3.7-8.6,3.7-13.9h-7.6c-7.8,0-19.5,1.3-19.5,11.6C481,528.1,485.8,530.6,492.1,530.6"/>
	<path d="M541.3,474.5h16.6v9.2h0.3c5.5-7.7,12.9-10.7,22.1-10.7c16,0,22.9,11.3,22.9,26.4v42.5h-17.5v-36c0-8.2-0.1-19.4-11.4-19.4
		c-12.7,0-15.4,13.7-15.4,22.4v33h-17.5V474.5z"/>
	<path d="M649.2,523.7h0.3l16.2-49.2h17.8l-25.3,66.9c-5.6,14.9-9.7,29.6-28,29.6c-4.2,0-8.4-0.7-12.4-1.8l1.2-13
		c2.2,0.8,4.7,1.2,9,1.2c7.1,0,11.4-4.8,11.4-12l-25.8-70.8H633L649.2,523.7z"/>
	<rect x="-43.3" y="70.9" width="103.8" height="143.1"/>
	<rect x="-43.3" y="236.2" class="st0" width="103.8" height="143.1"/>
	<rect x="-43.3" y="401.4" class="st1" width="103.8" height="143.1"/>
</g>
</svg>
